# AST/ASF file generated using VICON BodyLanguage
# -----------------------------------------------
:version 1.10
:name VICON
:units
  mass 1.0
  length 0.45
  angle deg
:documentation
   .ast/.asf automatically generated from VICON data using
   VICON BodyBuilder and BodyLanguage model FoxedUp or BRILLIANT.MOD
:root
   order TX TY TZ RX RY RZ
   axis XYZ
   position 0 0 0  
   orientation 0 0 0 
:bonedata
  begin
     id 1 
     name lhipjoint
     direction 0.521689 -0.742065 0.420928 
     length 2.47002 
     axis 0 0 0  XYZ
  end
  begin
     id 2 
     name lfemur
     direction 0.34202 -0.939693 0  
     length 7.24654  
     axis 0 0 20  XYZ
    dof rx ry rz
    limits (-160.0 20.0)
           (-70.0 70.0)
           (-60.0 70.0)
  end
  begin
     id 3 
     name ltibia
     direction 0.34202 -0.939693 0   
     length 8.04849   
     axis 0 0 20   XYZ
    dof rx
    limits (-10.0 170.0)
  end
  begin
     id 4 
     name lfoot
     direction 0.0745411 -0.2048 0.975961   
     length 1.72367   
     axis -90 7.62852e-016 20   XYZ
    dof rx rz
    limits (-45.0 90.0)
           (-70.0 20.0)
  end
  begin
     id 5 
     name ltoes
     direction 1.53556e-011 -4.21901e-011 1   
     length 0.87311   
     axis -90 7.62852e-016 20   XYZ
    dof rx
    limits (-90.0 20.0)
  end
  begin
     id 6 
     name rhipjoint
     direction -0.52849 -0.738415 0.418857   
     length 2.48223  
     axis 0 0 0  XYZ 
  end
  begin
     id 7 
     name rfemur
     direction -0.34202 -0.939693 0   
     length 7.15571   
     axis 0 0 -20   XYZ
    dof rx ry rz
    limits (-160.0 20.0)
           (-70.0 70.0)
           (-70.0 60.0)
  end
  begin
     id 8 
     name rtibia
     direction -0.34202 -0.939693 0   
     length 7.81659   
     axis 0 0 -20   XYZ
    dof rx
    limits (-10.0 170.0)
 end
 begin
     id 9 
     name rfoot
     direction -0.0917348 -0.252039 0.963359   
     length 1.84382  
     axis -90 -7.62852e-016 -20   XYZ
    dof rx rz
    limits (-45.0 90.0)
           (-20.0 70.0)
  end
  begin
     id 10 
     name rtoes
     direction -1.53551e-011 -4.21879e-011 1   
     length 0.927771   
     axis -90 -7.62852e-016 -20   XYZ
    dof rx
    limits (-90.0 20.0)
  end
  begin
     id 11 
     name lowerback
     direction 0.00583058 0.999822 0.0179296   
     length 2.1429   
     axis 0 0 0   XYZ
    dof rx ry rz
    limits (-20.0 45.0)
           (-30.0 30.0)
           (-30.0 30.0)
  end
  begin
     id 12 
     name upperback
     direction -0.0137999 0.999752 -0.0175071   
     length 2.14252   
     axis 0 0 0   XYZ
    dof rx ry rz
    limits (-20.0 45.0)
           (-30.0 30.0)
           (-30.0 30.0)
  end
  begin
     id 13 
     name thorax
     direction -0.0158036 0.99955 -0.0254909   
     length 2.1383   
     axis 0 0 0   XYZ
    dof rx ry rz
    limits (-20.0 45.0)
           (-30.0 30.0)
           (-30.0 30.0)
  end
  begin
     id 14 
     name lowerneck
     direction -0.0101179 0.999403 -0.0330262   
     length 1.65808   
     axis 0 0 0   XYZ
    dof rx ry rz
    limits (-20.0 45.0)
           (-30.0 30.0)
           (-30.0 30.0)
  end
  begin
     id 15 
     name upperneck
     direction 0.0497734 0.995978 -0.074501   
     length 1.5897   
     axis 0 0 0   XYZ
    dof rx ry rz
    limits (-20.0 45.0)
           (-30.0 30.0)
           (-30.0 30.0)
  end
  begin
     id 16
     name head
     direction 0.0189524 0.999519 -0.0245438  
     length 1.74024  
     axis 0 0 0   XYZ
    dof rx ry rz
    limits (-20.0 45.0)
           (-30.0 30.0)
           (-30.0 30.0)
  end
  begin
     id 17 
     name lclavicle
     direction 0.945604 0.324422 0.0241537  
     length 3.59089  
     axis 0 0 0   XYZ
    dof ry rz
    limits (-20.0 10.0)
           (0.0 20.0)
  end
  begin
     id 18 
     name lhumerus
     direction 1 -4.48964e-011 -2.63524e-027   
     length 5.2391   
     axis 180 -30 -90   XYZ
    dof rx ry rz
    limits (-60.0 90.0)
           (-90.0 90.0)
           (-90.0 90.0)
  end
  begin
     id 19
     name lradius
     direction 1 -4.48969e-011 3.86978e-028   
     length 3.31467   
     axis 180 -30 -90   XYZ
    dof rx
    limits (-10.0 170.0)
  end
  begin
     id 20
     name lwrist
     direction 1 -4.48963e-011 7.20928e-028   
     length 1.65734   
     axis -5.52449e-016 90 90   XYZ
    dof ry
    limits (-180.0 0.0)
 end
  begin
     id 21 
     name lhand
     direction 1 -4.48964e-011 1.44186e-027   
     length 0.9659   
     axis -9.20027e-016 90 90   XYZ
    dof rx rz
    limits (-90.0 90.0)
           (-45.0 45.0)
  end
  begin
     id 22 
     name lfingers
     direction 1 -4.48965e-011 2.88371e-027   
     length 0.778733   
     axis -1.84005e-015 90 90   XYZ
    dof rx
    limits (0.0 90.0)
  end
  begin
     id 23
     name lthumb
     direction 0.707107 -6.34931e-011 0.707107   
     length 1.11811   
     axis -90 45 2.85299e-015   XYZ
    dof rx rz
    limits (-45.0 45.0)
           (-45.0 45.0)
  end
  begin
     id 24 
     name rclavicle
     direction -0.923762 0.370785 0.0958234   
     length 3.54196  
     axis 0 0 0   XYZ 
    dof ry rz
    limits (-10.0 20.0)
           (-20.0 0.0)
  end
  begin
     id 25 
     name rhumerus
     direction -1 -4.48966e-011 1.18702e-017  
     length 5.30252   
     axis 180 30 90   XYZ
    dof rx ry rz
    limits (-90.0 60.0)
           (-90.0 90.0)
           (-90.0 90.0)
  end
  begin
     id 26 
     name rradius
     direction -1 -4.48966e-011 4.46736e-027   
     length 3.67875   
     axis 180 30 90   XYZ
    dof rx
    limits (-10.0 170.0)
  end
  begin
     id 27 
     name rwrist
     direction -1 -4.48966e-011 7.20928e-028   
     length 1.83937   
     axis -5.52449e-016 -90 -90   XYZ
    dof ry
    limits (-180.0 0.0)
  end
  begin
     id 28
     name rhand
     direction -1 -4.48973e-011 1.44186e-027   
     length 0.594811   
     axis -9.20027e-016 -90 -90   XYZ
    dof rx rz
    limits (-90.0 90.0)
           (-45.0 45.0)
  end
  begin
     id 29
     name rfingers
     direction -1 -4.48963e-011 2.88371e-027   
     length 0.479552   
     axis -1.84005e-015 -90 -90   XYZ
    dof rx
    limits (0.0 90.0)
  end
  begin
     id 30
     name rthumb
     direction -0.707107 -6.34932e-011 0.707107   
     length 0.688544   
     axis -90 -45 -2.85299e-015   XYZ
    dof rx rz
    limits (-45.0 45.0)
           (-45.0 45.0)
  end
:hierarchy
  begin
    root lhipjoint rhipjoint lowerback
    lhipjoint lfemur
    lfemur ltibia
    ltibia lfoot
    lfoot ltoes
    rhipjoint rfemur
    rfemur rtibia
    rtibia rfoot
    rfoot rtoes
    lowerback upperback
    upperback thorax
    thorax lowerneck lclavicle rclavicle
    lowerneck upperneck
    upperneck head
    lclavicle lhumerus
    lhumerus lradius
    lradius lwrist
    lwrist lhand lthumb
    lhand lfingers
    rclavicle rhumerus
    rhumerus rradius
    rradius rwrist
    rwrist rhand rthumb
    rhand rfingers
  end

#!OML:ASF E:\acrobat2\Project_11_07_03\Capture day 1\Session 1\Acrobat.ASF
:FULLY-SPECIFIED
:DEGREES
391
root 9.09459 2.12754 -0.138105 118.463 -4.14252 -179.857
lowerback 19.0205 2.43595 -2.23485
upperback 14.1781 -0.0993153 -1.48171
thorax 4.68142 -1.57002 -0.42738
lowerneck -1.88355 -0.364146 -1.3671
upperneck 15.5179 -1.42611 1.51931
head 4.98339 -1.03746 0.597585
rclavicle 2.38542e-015 9.54166e-015
rhumerus 9.63369 -4.01551 -99.4071
rradius 20.9096
rwrist -12.4064
rhand -30.0562 -66.8305
rfingers 7.12502
rthumb -3.3717 -263.216
lclavicle 2.38542e-015 9.54166e-015
lhumerus 13.3623 -20.2447 90.5847
lradius 23.2379
lwrist 27.7115
lhand -42.169 359.333
lfingers 7.12502
lthumb -15.058 28.7651
rfemur -53.7882 -34.2494 -25.8613
rtibia 54.5871
rfoot 33.9031 -26.467
rtoes 29.8204
lfemur -50.9138 38.2275 15.942
ltibia 54.5084
lfoot 13.0623 20.3342
ltoes 31.4264
392
root 9.08347 2.22496 -0.224314 122.445 -0.396406 -177.479
lowerback 18.3751 1.82894 2.57699
upperback 14.2215 -0.253491 -0.48154
thorax 5.149 -1.31288 -2.05298
lowerneck -2.55156 -0.420908 -1.44602
upperneck 14.4815 -1.39141 1.992
head 4.78026 -0.927931 0.762327
rclavicle -3.57812e-015 4.77083e-015
rhumerus 9.86671 -5.66829 -100.164
rradius 18.79
rwrist -11.5064
rhand -30.9041 -66.5616
rfingers 7.12502
rthumb -4.19054 -263.5
lclavicle -3.57812e-015 4.77083e-015
lhumerus 13.3064 -21.1755 90.5109
lradius 20.5894
lwrist 28.1906
lhand -40.8912 361.03
lfingers 7.12502
lthumb -13.8268 30.5502
rfemur -54.3663 -33.4032 -21.215
rtibia 53.3353
rfoot 33.6814 -26.9884
rtoes 29.5569
lfemur -52.8783 39.2695 19.8558
ltibia 53.9141
lfoot 14.3363 20.0496
ltoes 29.3402
393
root 9.07539 2.28599 -0.320524 125.336 0.308424 -176.385
lowerback 19.2926 1.61914 4.11002
upperback 14.3687 -0.467825 -0.0878146
thorax 4.89177 -1.39131 -2.46179
lowerneck -2.97815 -0.543339 -1.16611
upperneck 13.3084 -1.40728 1.62614
head 4.99719 -0.902791 0.670873
rclavicle 2.5842e-015 2.14687e-014
rhumerus 9.72854 -7.1617 -100.616
rradius 16.9263
rwrist -10.7093
rhand -32.3186 -66.3928
rfingers 7.12502
rthumb -5.55633 -263.7
lclavicle 2.5842e-015 2.14687e-014
lhumerus 12.7806 -21.6628 90.8585
lradius 18.196
lwrist 28.6657
lhand -41.6655 360.57
lfingers 7.12502
lthumb -14.5729 30.0381
rfemur -53.98 -32.8326 -20.7449
rtibia 52.4086
rfoot 33.6873 -27.5276
rtoes 30.2653
lfemur -53.869 38.7847 20.7674
ltibia 52.9438
lfoot 15.2564 20.0509
ltoes 27.1255
394
root 9.06923 2.31982 -0.442999 127.26 -3.36547 -178.735
lowerback 21.2498 2.1659 -0.0588634
upperback 14.4927 -0.540394 -0.910939
thorax 3.95052 -1.79047 -0.956886
lowerneck -1.76103 -0.610798 -0.925141
upperneck 12.2302 -1.42118 1.17732
head 4.34575 -0.909507 0.480193
rclavicle -1.00386e-014 -2.38542e-015
rhumerus 8.49292 -7.75526 -100.499
rradius 15.9023
rwrist -10.1868
rhand -32.8312 -67.184
rfingers 7.12502
rthumb -6.05124 -262.922
lclavicle -1.00386e-014 -2.38542e-015
lhumerus 11.2178 -21.2877 91.9352
lradius 16.1806
lwrist 29.1354
lhand -42.4105 360.013
lfingers 7.12502
lthumb -15.2906 29.4277
rfemur -53.4382 -33.3764 -26.3382
rtibia 52.2677
rfoot 35.1699 -26.4495
rtoes 28.7006
lfemur -53.3513 36.6788 16.6153
ltibia 51.3176
lfoot 15.5696 20.5493
ltoes 25.9544
395
root 9.0666 2.38774 -0.54306 130.464 -2.3725 -178.232
lowerback 21.8592 2.16763 1.07632
upperback 14.4256 -0.419705 -0.519895
thorax 3.60054 -1.68696 -1.18754
lowerneck -1.15749 -0.834048 -0.767855
upperneck 11.0983 -1.62053 0.864591
head 3.81807 -0.986675 0.34735
rclavicle 1.07344e-014 1.90833e-014
rhumerus 7.63856 -8.25332 -100.469
rradius 14.7871
rwrist -9.49411
rhand -34.1928 -66.4246
rfingers 7.12502
rthumb -7.36568 -263.724
lclavicle 1.07344e-014 1.90833e-014
lhumerus 10.0985 -21.3516 92.654
lradius 14.5095
lwrist 29.6783
lhand -42.8235 360.047
lfingers 7.12502
lthumb -15.6884 29.4314
rfemur -54.2762 -32.6972 -25.3613
rtibia 51.467
rfoot 35.7483 -26.3035
rtoes 27.1716
lfemur -54.1226 37.0231 17.7625
ltibia 50.16
lfoot 16.3414 21.4397
ltoes 25.471
396
root 9.06436 2.4558 -0.654889 133.169 -2.78323 -178.547
lowerback 22.8649 2.34869 0.630067
upperback 14.6645 -0.462454 -0.451687
thorax 3.37643 -1.82493 -0.850193
lowerneck -1.07205 -1.03408 -0.918281
upperneck 10.1677 -1.8 0.828328
head 3.47762 -1.05189 0.360191
rclavicle -1.73937e-015 -5.96354e-015
rhumerus 7.00745 -8.34346 -100.459
rradius 13.6323
rwrist -8.89467
rhand -36.9807 -66.2727
rfingers 7.12502
rthumb -10.056 -263.988
lclavicle -1.73937e-015 -5.96354e-015
lhumerus 9.06796 -20.6647 93.3042
lradius 13.4526
lwrist 29.1412
lhand -42.9532 361.328
lfingers 7.12502
lthumb -15.8133 30.7019
rfemur -54.279 -32.4497 -26.4178
rtibia 50.4891
rfoot 36.8824 -25.1896
rtoes 24.5508
lfemur -54.6676 36.8381 17.146
ltibia 48.6722
lfoot 16.6622 24.263
ltoes 27.8907
397
root 9.05752 2.52948 -0.754641 135.973 -3.70719 -179.245
lowerback 24.0022 2.51289 -0.368566
upperback 14.8764 -0.649806 -0.522782
thorax 3.0569 -2.06716 -0.31497
lowerneck -0.992146 -1.04092 -1.10663
upperneck 9.25512 -1.73714 0.909247
head 3.14939 -0.996875 0.425396
rclavicle -5.71506e-016 8.74653e-015
rhumerus 6.88905 -11.0539 -100.808
rradius 12.2842
rwrist -3.10364
rhand -35.6106 -69.8719
rfingers 7.12502
rthumb -8.73405 -260.329
lclavicle -5.71506e-016 8.74653e-015
lhumerus 7.96043 -20.3763 93.8273
lradius 12.8489
lwrist 29.8972
lhand -42.6744 360.783
lfingers 7.12502
lthumb -15.5448 30.1779
rfemur -54.0756 -32.5865 -28.0818
rtibia 49.1384
rfoot 38.3605 -24.3033
rtoes 21.5833
lfemur -54.8233 35.9227 16.5238
ltibia 45.3262
lfoot 4.67998 37.9462
ltoes 21.6034
398
root 9.05175 2.60346 -0.839325 138.733 -4.21415 -179.916
lowerback 25.5004 2.68042 -1.13614
upperback 14.9286 -0.807503 -0.499805
thorax 2.4062 -2.27183 0.20757
lowerneck -0.0631163 -0.981531 -1.74091
upperneck 7.68735 -1.61298 1.492
head 2.46153 -0.911256 0.731871
rclavicle 2.42269e-015 -8.34896e-015
rhumerus 6.63707 -13.5437 -101.046
rradius 10.6544
rwrist 1.70979
rhand -33.2466 -72.5867
rfingers 7.12502
rthumb -6.45233 -257.532
lclavicle 2.42269e-015 -8.34896e-015
lhumerus 6.46243 -19.9723 94.4586
lradius 12.8397
lwrist 30.7026
lhand -42.5707 360.286
lfingers 7.12502
lthumb -15.4449 29.6893
rfemur -53.7761 -32.2558 -29.6276
rtibia 48.5312
rfoot 36.4899 -28.1148
rtoes 29.8895
lfemur -54.5755 34.9863 16.6922
ltibia 41.8756
lfoot -11.6897 47.0332
ltoes 1.02175
399
root 9.05036 2.67191 -0.942216 140.899 -3.23003 -179.671
lowerback 27.3098 2.89672 -0.41653
upperback 15.1488 -0.711708 -0.103561
thorax 1.83913 -2.32302 0.236321
lowerneck 0.36089 -1.04628 -2.3344
upperneck 6.48439 -1.65928 2.00095
head 2.00555 -0.914956 0.995759
rclavicle -4.89507e-015 -1.11319e-014
rhumerus 6.17653 -10.866 -100.662
rradius 9.77471
rwrist 0.896136
rhand -29.3729 -72.2051
rfingers 7.12502
rthumb -2.71181 -257.832
lclavicle -4.89507e-015 -1.11319e-014
lhumerus 5.05368 -20.5821 94.9107
lradius 13.0925
lwrist 32.8049
lhand -42.9927 358.822
lfingers 7.12502
lthumb -15.8513 28.1929
rfemur -53.4511 -30.642 -29.6064
rtibia 45.9912
rfoot 39.341 -36.1758
rtoes 35.0397
lfemur -53.5365 34.8565 19.3318
ltibia 38.885
lfoot -24.1185 48.6362
ltoes 25.0128
400
root 9.05266 2.74123 -1.04217 143.017 -1.79735 -179.016
lowerback 29.2049 3.10461 0.81526
upperback 15.4067 -0.52378 0.362719
thorax 1.31775 -2.32362 0.0250623
lowerneck -0.339087 -1.22275 -2.03252
upperneck 6.16898 -1.81249 1.4344
head 2.01866 -0.976319 0.758987
rclavicle 7.7526e-015 -9.54166e-015
rhumerus 5.85396 -8.19161 -100.381
rradius 9.01755
rwrist -0.399773
rhand -29.9888 -70.83
rfingers 7.12502
rthumb -3.3066 -259.216
lclavicle 7.7526e-015 -9.54166e-015
lhumerus 4.01866 -22.3584 95.1028
lradius 13.4119
lwrist 36.0605
lhand -43.892 357.456
lfingers 7.12502
lthumb -16.7173 26.7565
rfemur -52.9554 -28.1662 -29.7525
rtibia 40.9346
rfoot 41.814 -38.448
rtoes 26.7752
lfemur -53.1017 35.5989 21.8937
ltibia 36.8537
lfoot -22.6276 38.8312
ltoes 38.64
401
root 9.04528 2.83698 -1.13552 145.322 -2.37762 -178.787
lowerback 31.0613 2.91569 1.09643
upperback 15.5594 -0.969694 0.512863
thorax 0.69579 -2.64436 0.193229
lowerneck -0.587425 -1.35491 -1.93411
upperneck 5.32172 -1.91587 1.03749
head 1.78308 -1.01286 0.614866
rclavicle 3.32964e-015 -6.55989e-015
rhumerus 5.26324 -5.56406 -99.9918
rradius 8.95707
rwrist -1.86036
rhand -31.3268 -73.3796
rfingers 7.12502
rthumb -4.59875 -256.69
lclavicle 3.32964e-015 -6.55989e-015
lhumerus 2.96885 -23.8278 95.4398
lradius 14.0243
lwrist 37.9177
lhand -44.7934 338.321
lfingers 7.12502
lthumb -17.5849 7.54616
rfemur -51.1415 -27.0729 -32.5642
rtibia 36.9336
rfoot 35.1521 -44.3123
rtoes 43.8752
lfemur -53.8435 34.7242 22.1355
ltibia 34.6555
lfoot -21.6945 30.6028
ltoes 53.7757
402
root 9.02466 2.9571 -1.21754 148.608 -1.37006 -177.391
lowerback 32.0546 2.54919 3.05595
upperback 15.4537 -0.991014 1.01192
thorax 0.204212 -2.59744 -0.336788
lowerneck -0.563381 -1.38749 -2.46249
upperneck 3.90414 -1.90389 1.276
head 1.33679 -0.986927 0.780683
rclavicle -2.43511e-015 -5.96354e-015
rhumerus 4.37051 -2.98121 -99.4801
rradius 9.92343
rwrist -2.77217
rhand -36.4769 -71.6157
rfingers 7.12502
rthumb -9.57 -258.622
lclavicle -2.43511e-015 -5.96354e-015
lhumerus 2.0371 -25.7614 95.988
lradius 15.0226
lwrist 36.633
lhand -46.9095 324.256
lfingers 7.12502
lthumb -19.6203 -6.71444
rfemur -51.751 -26.537 -31.5808
rtibia 34.7251
rfoot 29.5611 -40.227
rtoes 44.6047
lfemur -54.5803 34.9514 24.8004
ltibia 32.7758
lfoot -13.3282 28.2811
ltoes 56.1644
403
root 8.99438 3.08155 -1.33052 151.722 -2.42641 -178.729
lowerback 33.3526 2.63776 2.13321
upperback 15.4336 -1.29989 0.707046
thorax -0.123792 -2.8474 -0.00714751
lowerneck -0.927772 -1.45171 -2.69847
upperneck 2.27652 -1.93084 1.27505
head 0.892407 -0.979222 0.819172
rclavicle -4.07509e-015 -1.19271e-015
rhumerus 3.82235 -0.466528 -99.1851
rradius 11.4746
rwrist -2.28256
rhand -42.0915 -84.6451
rfingers 7.12502
rthumb -14.9833 -245.917
lclavicle -4.07509e-015 -1.19271e-015
lhumerus 1.81447 -27.0319 96.4506
lradius 16.7799
lwrist 31.952
lhand -52.4174 321.981
lfingers 7.12502
lthumb -24.9075 -9.62163
rfemur -51.9152 -27.4781 -34.2871
rtibia 31.9999
rfoot 32.4369 -32.2664
rtoes 28.4215
lfemur -54.9328 33.7949 24.2742
ltibia 30.4541
lfoot -10.8396 27.8992
ltoes 52.8058
404
root 8.98226 3.22772 -1.42883 155.567 -2.05002 -178.555
lowerback 33.7216 2.61161 2.74506
upperback 15.3927 -1.18178 0.755755
thorax -0.28431 -2.7525 -0.30087
lowerneck -1.10298 -1.5931 -2.40004
upperneck 0.306722 -2.10144 0.99328
head 0.310653 -1.0517 0.682828
rclavicle 6.65929e-015 4.87022e-015
rhumerus 3.36359 3.19811 -99.2729
rradius 13.3207
rwrist -1.69069
rhand -41.1522 -263.5
rfingers 7.12502
rthumb -14.0783 -233.997
lclavicle 6.65929e-015 4.87022e-015
lhumerus 1.98126 -28.2402 96.706
lradius 17.891
lwrist 27.2216
lhand -56.9388 318.765
lfingers 7.12502
lthumb -29.233 -13.5111
rfemur -52.2399 -26.5218 -35.8946
rtibia 29.4372
rfoot 27.0959 -33.0551
rtoes 23.9533
lfemur -55.5375 34.0255 25.9792
ltibia 28.4417
lfoot -16.001 25.8408
ltoes 54.8115
405
root 8.98386 3.39192 -1.52255 159.71 -1.46256 -178.006
lowerback 33.9879 2.54037 3.33771
upperback 15.083 -0.988393 0.921377
thorax -0.694117 -2.58141 -0.475629
lowerneck -0.689512 -1.51028 -2.42932
upperneck -1.90743 -2.01795 1.12826
head -0.430578 -1.00948 0.745619
rclavicle -4.37326e-015 -3.67752e-015
rhumerus 3.22875 0.969736 -100.247
rradius 14.354
rwrist 3.67078
rhand -40.3199 -257.294
rfingers 7.12502
rthumb -13.2761 -227.737
lclavicle -4.37326e-015 -3.67752e-015
lhumerus 2.49995 -26.3517 97.3474
lradius 18.2293
lwrist 25.1829
lhand -57.5752 310.521
lfingers 7.12502
lthumb -29.8405 -21.863
rfemur -52.4308 -24.9211 -37.65
rtibia 26.6064
rfoot 18.1316 -37.9384
rtoes 29.446
lfemur -56.0105 34.5955 28.3641
ltibia 26.4509
lfoot -21.5286 22.7379
ltoes 56.6325
